# xmcd
#
# Track frame offsets: 
#        182
#        19212
#        40982
#        57910
#        71062
#        81802
#        99432
#        115370
#        132295
#        158985
#        176487
#
# Disc length: 2534 seconds
#
# Revision: 2
# Processed by: cddbd v1.5.2PL0 Copyright (c) Steve Scherf et al.
# Submitted via: ExactAudioCopy v0.99pb3
#
DISCID=9309e40b
DTITLE=Bukka White - Shake 'em On Down
DYEAR=1993
DGENRE=Blues
TTITLE0=Aberdeen Mississippi Blues
TTITLE1=Baby Please Don't Go
TTITLE2=New Orleans Streamline
TTITLE3=Parchman Farm Blues
TTITLE4=Poor Boy Long Ways From Home
TTITLE5=Rememberance of Charlie Patton
TTITLE6=Shake 'em on Down
TTITLE7=I Am the Heavenly Way
TTITLE8=The Atlanta Special
TTITLE9=Drunk Man Blues
TTITLE10=Army Blues
EXTD=1963\n\n\nsubmitted by Stamppot
EXTT0=
EXTT1=
EXTT2=
EXTT3=
EXTT4=
EXTT5=
EXTT6=
EXTT7=
EXTT8=
EXTT9=
EXTT10=
PLAYORDER=
